# xmcd CD database file
#
# Track frame offsets:
#	150
#	16479
#	34104
#	47749
#	66940
#	83251
#	97383
#	110914
#
# Disc length: 1735 seconds
#
# Revision: 2
# Processed by: cddbd v1.5.1PL0 Copyright (c) Steve Scherf et al.
# Submitted via: CDex 1.51
#
DISCID=6806c508
DTITLE=Lisa Mills - Mississippi's Own Lisa Mills Does It All
DYEAR=2000
DGENRE=New Orleans Lounge-Jazz
TTITLE0=Someone With Your Smile
TTITLE1=Autumn Love
TTITLE2=Don't Want To Say Goodnight
TTITLE3=My Song Is You
TTITLE4=Someone With Your Smile (Instrumental Arrangement)
TTITLE5=Sleepy Rhythm (Instrumental Arrangement)
TTITLE6=Don't Want To Say Goodnight (Instrumental Arrangement)
TTITLE7=My Song Is You (Instrumental Arrangement)
EXTD=YEAR: 2000
EXTT0=
EXTT1=
EXTT2=
EXTT3=
EXTT4=
EXTT5=
EXTT6=
EXTT7=
PLAYORDER=
